<?xml version="1.0" encoding="UTF-8"?>
<svg width="1480" height="1480" version="1.1" xmlns="http://www.w3.org/2000/svg">
 <svg id="SvgjsSvg1026" class="img-fluid" width="1480" height="1480" cursor="move"
  style="transform-origin:50% 50% 0px;transform:matrix(1, 0, 0, 1, -4, -2);transition:none"
  viewBox="0 0 14800 14800" xmlns="http://www.w3.org/2000/svg">
  <g id="SvgjsG1025" style="transform:none">
   <g style="transform:none">
    <path id="SvgjsPath1024"
     d="m7170 14789c-113-3-232-7-265-8l-60-1 550-550-1300-1301-1300-1300 25 6c26 5 297 69 2204 515l1119 262 877-877v-20c0-11-196-785-434-1720-239-935-433-1701-431-1703 1-2 611 598 1356 1333l1353 1336 913-913c502-502 913-916 913-919 0-6-5948-5922-5959-5927-3-1-377 369-830 822l-823 823 639 2519c352 1386 639 2520 638 2522-2 2-488-114-1081-257-3433-828-3987-961-4002-961h-17l-480 480-479 480-7-8c-4-4-23-68-42-142-142-542-221-1089-236-1635l-6-240 14-500 15-165c58-610 171-1144 357-1700 554-1656 1707-3085 3216-3988 1082-648 2291-1002 3553-1041l245-8 247 8 246 8 169 16c232 22 648 79 661 91 2 1-65 69-149 151-404 393-664 761-823 1165l-46 116-34 134c-19 73-42 174-52 223l-16 90-10 410 16 113c18 120 60 300 74 314l9 9 718-256c395-141 721-258 726-260l7-5-14-53-15-52-12-220 17-85 18-85 58-142 52-78 52-79 85-86 86-86 56-36 55-36 62-21 61-21h44 43l48 16 47 16 60 55 59 55 30 61 30 62 42 160 10 320-204 2608 777 777 2533-2533 107 144c385 515 707 1093 948 1704l75 190 70 215c199 608 307 1171 352 1830l11 155v315 315l-11 155c-70 1025-326 1967-775 2855-825 1630-2206 2890-3904 3559-648 256-1308 412-2036 481l-160 15-190 5c-104 3-224 7-265 8-41 2-167 0-280-4z" />
    <path id="SvgjsPath1023"
     d="m11586 2508c9-69 65-831 72-987l7-164 167 125c91 69 230 179 308 243l141 119-348 348c-191 191-349 348-350 348s0-15 3-32z" />
   </g>
  </g>
  <g id="SvgjsG1022" fill="#fff" style="transform:none"></g>
 </svg>
 <style>@media (prefers-color-scheme: light) { :root { filter: none; } }
  @media (prefers-color-scheme: dark) { :root { filter: invert(100%); } }</style>
</svg>
